<?xml version="1.0" encoding="UTF-8" standalone="no"?><svg xmlns="http://www.w3.org/2000/svg" xmlns:xlink="http://www.w3.org/1999/xlink" fill="#beb0fa" height="462.1" preserveAspectRatio="xMidYMid meet" version="1" viewBox="0.0 0.0 463.1 462.1" width="463.1" zoomAndPan="magnify"><g id="change1_1"><path d="M360.677,191.588c4.143,0,7.5-3.358,7.5-7.5s-3.357-7.5-7.5-7.5c-93.235,0-169.088-75.853-169.088-169.088 c0-4.142-3.357-7.5-7.5-7.5s-7.5,3.358-7.5,7.5c0,93.236-75.853,169.088-169.089,169.088c-4.143,0-7.5,3.358-7.5,7.5 s3.357,7.5,7.5,7.5c93.236,0,169.089,75.853,169.089,169.088c0,4.143,3.357,7.5,7.5,7.5s7.5-3.357,7.5-7.5 C191.589,267.441,267.441,191.588,360.677,191.588z M184.089,308.598c-17.638-59.71-64.8-106.872-124.51-124.51 c59.71-17.638,106.872-64.8,124.51-124.51c17.638,59.71,64.8,106.872,124.51,124.51 C248.889,201.726,201.727,248.888,184.089,308.598z M455.561,330.237c-60.286,0-109.333-49.046-109.333-109.332 c0-4.142-3.357-7.5-7.5-7.5s-7.5,3.358-7.5,7.5c0,60.286-49.046,109.332-109.332,109.332c-4.143,0-7.5,3.357-7.5,7.5 s3.357,7.5,7.5,7.5c60.286,0,109.332,49.046,109.332,109.332c0,4.143,3.357,7.5,7.5,7.5s7.5-3.357,7.5-7.5 c0-60.286,49.047-109.332,109.333-109.332c4.143,0,7.5-3.357,7.5-7.5S459.703,330.237,455.561,330.237z M338.728,412.018 c-12.562-34.386-39.896-61.719-74.281-74.281c34.386-12.562,61.719-39.896,74.281-74.281c12.562,34.386,39.896,61.719,74.282,74.281 C378.623,350.299,351.29,377.632,338.728,412.018z" fill="inherit"/></g></svg>