<?xml version="1.0" encoding="UTF-8" standalone="no"?><svg xmlns="http://www.w3.org/2000/svg" xmlns:xlink="http://www.w3.org/1999/xlink" fill="#000000" height="492.4" preserveAspectRatio="xMidYMid meet" version="1" viewBox="0.0 0.0 351.2 492.4" width="351.2" zoomAndPan="magnify"><g id="change1_1"><path d="M176.25,273.72c-28.36,0-49.7-41.62-49.7-68.6c0-27.4,22.3-49.7,49.7-49.7s49.7,22.3,49.7,49.7 C225.95,232.1,204.61,273.72,176.25,273.72z M176.25,170.42c-19.13,0-34.7,15.57-34.7,34.7c0,20.16,16.81,53.6,34.7,53.6 c17.89,0,34.7-33.44,34.7-53.6C210.95,185.98,195.39,170.42,176.25,170.42z" fill="#beb0fa"/></g><g id="change1_2"><path d="M238.23,492.43H112.98c-4.14,0-7.5-3.36-7.5-7.5V349.95c0-38.67,31.46-70.12,70.12-70.12 c38.67,0,70.12,31.46,70.12,70.12v134.97C245.73,489.07,242.37,492.43,238.23,492.43z M120.48,477.43h110.25V349.95 c0-30.4-24.73-55.12-55.12-55.12c-30.4,0-55.12,24.73-55.12,55.12V477.43z" fill="#beb0fa"/></g><g id="change1_6"><path d="M291.51,305.77c-24.56,0-43.04-35.77-43.04-58.96c0-23.73,19.31-43.04,43.04-43.04s43.04,19.31,43.04,43.04 C334.55,270.01,316.07,305.77,291.51,305.77z M291.51,218.78c-15.46,0-28.04,12.58-28.04,28.04c0,17.76,14.77,43.96,28.04,43.96 c13.27,0,28.04-26.2,28.04-43.96C319.55,231.35,306.97,218.78,291.51,218.78z" fill="#beb0fa"/></g><g id="change1_5"><path d="M343.7,492.43H238.23c-4.14,0-7.5-3.36-7.5-7.5V371.26c0-33.22,27.02-60.24,60.24-60.24 s60.24,27.02,60.24,60.24v113.67C351.2,489.07,347.85,492.43,343.7,492.43z M245.73,477.43h90.48V371.26 c0-24.94-20.29-45.24-45.24-45.24c-24.95,0-45.24,20.29-45.24,45.24V477.43z" fill="#beb0fa"/></g><g id="change1_7"><path d="M60.79,305.77c-24.56,0-43.04-35.77-43.04-58.96c0-23.73,19.31-43.04,43.04-43.04s43.04,19.31,43.04,43.04 C103.83,270.01,85.35,305.77,60.79,305.77z M60.79,218.78c-15.46,0-28.04,12.58-28.04,28.04c0,17.76,14.77,43.96,28.04,43.96 s28.04-26.2,28.04-43.96C88.83,231.35,76.25,218.78,60.79,218.78z" fill="#beb0fa"/></g><g id="change1_4"><path d="M112.98,492.43H7.5c-4.14,0-7.5-3.36-7.5-7.5V371.26c0-33.22,27.02-60.24,60.24-60.24 c33.22,0,60.24,27.02,60.24,60.24v113.67C120.48,489.07,117.12,492.43,112.98,492.43z M15,477.43h90.48V371.26 c0-24.94-20.29-45.24-45.24-45.24c-24.94,0-45.24,20.29-45.24,45.24V477.43z" fill="#beb0fa"/></g><g id="change1_3"><path d="M175.6,145.31c-2.68,0-5.16-1.43-6.5-3.75L150.3,109h-39.39c-18.38,0-33.33-14.95-33.33-33.32V33.33 C77.59,14.95,92.54,0,110.92,0h129.37c18.38,0,33.33,14.95,33.33,33.33v42.35c0,18.38-14.95,33.32-33.33,33.32H200.9l-18.8,32.56 C180.76,143.88,178.28,145.31,175.6,145.31z M110.92,15c-10.1,0-18.33,8.22-18.33,18.33v42.35c0,10.1,8.22,18.32,18.33,18.32h43.71 c2.68,0,5.15,1.43,6.49,3.75l14.48,25.06l14.48-25.06c1.34-2.32,3.81-3.75,6.49-3.75h43.71c10.1,0,18.33-8.22,18.33-18.32V33.33 c0-10.1-8.22-18.33-18.33-18.33H110.92z" fill="#beb0fa"/></g></svg>