<?xml version="1.0" encoding="utf-8" standalone="no"?><!-- Generator: Adobe Illustrator 16.0.0, SVG Export Plug-In . SVG Version: 6.00 Build 0)  --><svg xmlns="http://www.w3.org/2000/svg" xmlns:xlink="http://www.w3.org/1999/xlink" enable-background="new 0 0 500 500" fill="#000000" height="500px" id="Layer_1" version="1.1" viewBox="0 0 500 500" width="500px" x="0px" xml:space="preserve" y="0px">
<g id="change1">
	<path d="M278.333,120.406c-10.642-11.948-28.953-13.006-40.904-2.368c-11.95,10.643-13.008,28.956-2.367,40.906   l21.638,24.295l33.654,37.789h-33.654h-128.98c-16,0-28.974,12.974-28.974,28.974s12.974,28.971,28.974,28.971h128.979h33.657   l-33.657,37.793l-21.635,24.291c-10.643,11.948-9.585,30.264,2.365,40.904c5.522,4.921,12.402,7.336,19.26,7.336   c7.979,0,15.92-3.273,21.646-9.702l115.42-129.593L278.333,120.406z" fill="#eaf7f6"/>
	<path d="M250.001,0C112.151,0,0,112.151,0,250.001C0,387.854,112.151,500,250.001,500   C387.854,500,500,387.854,500,250.001C500,112.151,387.854,0,250.001,0z M250.001,442.058c-105.9,0-192.056-86.159-192.056-192.057   c0-105.9,86.154-192.055,192.056-192.055c105.896,0,192.057,86.154,192.057,192.055   C442.058,355.898,355.899,442.058,250.001,442.058z" fill="#eaf7f6"/>
</g>
</svg>